<svg
  xmlns="http://www.w3.org/2000/svg"
  width="164px" height="36px">
  <path fill-rule="evenodd"  fill="rgb(0, 0, 0)"
        d="M163.881,27.118 L163.881,34.510 L142.616,34.510 L142.616,0.910 L163.639,0.910 L163.639,8.302 L150.349,8.302 L150.349,13.870 L162.431,13.870 L162.431,21.166 L150.349,21.166 L150.349,27.118 L163.881,27.118 ZM124.10,27.694 C125.717,27.694 127.272,27.327 128.673,26.590 C130.75,25.854 131.130,24.846 131.839,23.566 L138.508,27.406 C137.58,29.806 135.44,31.702 132.467,33.94 C129.889,34.486 127.70,35.182 124.10,35.182 C118.951,35.182 114.755,33.510 111.420,30.166 C108.85,26.823 106.418,22.671 106.418,17.710 C106.418,12.750 108.85,8.598 111.420,5.254 C114.755,1.911 118.951,0.238 124.10,0.238 C127.38,0.238 129.841,0.934 132.419,2.326 C134.996,3.718 137.26,5.614 138.508,8.14 L131.839,11.854 C131.97,10.542 130.34,9.526 128.649,8.806 C127.263,8.86 125.717,7.726 124.10,7.726 C121.13,7.726 118.621,8.638 116.833,10.462 C115.45,12.286 114.151,14.703 114.151,17.710 C114.151,20.718 115.45,23.134 116.833,24.958 C118.621,26.782 121.13,27.694 124.10,27.694 ZM93.853,0.910 L101.585,0.910 L101.585,34.510 L93.853,34.510 L93.853,0.910 ZM69.592,34.510 L58.573,0.910 L67.31,0.910 L74.522,25.630 L82.13,0.910 L90.470,0.910 L79.451,34.510 L69.592,34.510 ZM35.376,0.910 L56.399,0.910 L56.399,8.302 L43.108,8.302 L43.108,13.870 L55.190,13.870 L55.190,21.166 L43.108,21.166 L43.108,27.118 L56.640,27.118 L56.640,34.510 L35.376,34.510 L35.376,0.910 ZM14.112,34.510 L0.580,34.510 L0.580,0.910 L14.112,0.910 C18.783,0.910 22.690,2.518 25.831,5.734 C28.973,8.950 30.543,12.942 30.543,17.710 C30.543,22.479 28.973,26.470 25.831,29.686 C22.690,32.902 18.783,34.510 14.112,34.510 ZM20.612,10.870 C18.952,9.159 16.785,8.302 14.112,8.302 L8.312,8.302 L8.312,27.118 L14.112,27.118 C16.785,27.118 18.952,26.262 20.612,24.550 C22.271,22.839 23.101,20.559 23.101,17.710 C23.101,14.862 22.271,12.582 20.612,10.870 Z"/>
</svg>
